# xmcd
# 
# Track frame offsets:
#     150
#     16230
#     35020
#     52530
# 
# Disc length: 1070
# 
# Revision: 0
# Processed by: cddbd v1.5.2PL0 Copyright (c) Steve Scherf et al.
# Submitted via: BonkEnc v1.0.8
# 
DISCID=22042c04
DTITLE=Kulcha - Shaka Jam
DYEAR=1994
DGENRE=Hip-Hop
TTITLE0=Shaka Jam (Radio Edit)
TTITLE1=Shaka Jam (Extended Mix)
TTITLE2=Shaka Jam (Club Mix)
TTITLE3=Shaka Jam (12inch Edit)
EXTD=As featured in the smash hit TV show Heartbeat High
EXTT0=
EXTT1=
EXTT2=
EXTT3=
PLAYORDER=
